<?xml version='1.0' encoding='utf-8'?>
<svg xmlns="http://www.w3.org/2000/svg" id="svg210" width="340mm" height="340mm" version="1.1" viewBox="0 0 340 340">
    <g id="layer1">
        <path id="path3191" d="m97.902 191.99h-3.4018v-117.22h3.4018" fill="None" stroke="#000000" stroke-width="0.5" stroke-miterlimit="10" />
        <path id="path3191-3" d="m97.902 310.66h-3.4018v-117.22h3.4018" fill="None" stroke="#000000" stroke-width="0.5" stroke-miterlimit="10" />
    </g>
    <g id="layer1" style="font-size:30px;font-family:sans-serif;fill:#000000">
        <text id="text3157" x="108.15932" y="62.207836" fill="#000000" font-family="sans-serif" font-size="10.583px" stroke-width=".26458" style="line-height:1.25" xml:space="preserve">
            <tspan id="tspan3155" x="108.15932" y="62.207836" stroke-width=".26458">60</tspan>
        </text>
        <text id="text3161" x="16.877649" y="54.704445" fill="#000000" font-family="sans-serif" font-size="10.583px" stroke-width=".26458" style="line-height:1.25" xml:space="preserve">
            <tspan id="tspan3159" x="16.877649" y="54.704445">Soil Water </tspan>
            <tspan id="tspan3179" x="16.877649" y="67.933571">Content (%)</tspan>
        </text>
        <text id="text3165" x="159.08846" y="62.207836" fill="#000000" font-family="sans-serif" font-size="10.583px" stroke-width=".26458" style="line-height:1.25" xml:space="preserve">
            <tspan id="tspan3163" x="159.08846" y="62.207836" stroke-width=".26458">40</tspan>
        </text>
        <text id="text3177" x="209.64551" y="62.207836" fill="#000000" font-family="sans-serif" font-size="10.583px" stroke-width=".26458" style="line-height:1.25" xml:space="preserve">
            <tspan id="tspan3175" x="209.64551" y="62.207836" stroke-width=".26458">20</tspan>
        </text>
        <text id="text3183" x="12.719912" y="137.32135" fill="#000000" font-family="sans-serif" font-size="10.583px" stroke-width=".26458" style="line-height:1.25" xml:space="preserve">
            <tspan id="tspan3181" x="12.719912" y="137.32135" stroke-width=".26458">Well-Watered</tspan>
        </text>
        <text id="text3187" x="39.235229" y="254.97618" fill="#000000" font-family="sans-serif" font-size="10.583px" stroke-width=".26458" style="line-height:1.25" xml:space="preserve">
            <tspan id="tspan3185" x="39.235229" y="254.97618" stroke-width=".26458">Drought</tspan>
        </text>
        <text id="text3187-9" x="268.05103" y="195.53706" fill="#000000" font-family="sans-serif" font-size="10.583px" stroke-width=".26458" style="line-height:1.25" xml:space="preserve">
            <tspan id="tspan3185-1" x="268.05103" y="195.53706" stroke-width=".26458">Rewatered</tspan>
        </text>
    </g>
    <g id="GC60w">
        <path id="path858" d="m116.24 165.46c0.829-0.045 1.502 2.125 1.502 4.802 0 2.678-0.673 4.849-1.502 4.849l0.018 7.318c4.104 0 7.416-5.468 7.416-12.212s-3.312-12.211-7.416-12.257z" fill="None" stroke="#000000" stroke-width="0.5" stroke-miterlimit="10" />
        <path id="path232" d="m116.24 165.46c-0.83-0.045-1.502 2.125-1.502 4.802 0 2.678 0.672 4.849 1.502 4.849l0.018 7.318c-4.066 0-7.378-5.468-7.378-12.212s3.312-12.211 7.378-12.257z" fill="None" stroke="#000000" stroke-width="0.5" stroke-miterlimit="10" />
    </g>
    <g id="L60w">
        <path id="path852" d="m112.37 85.068s1.343-3.1736 3.784-0.061c0.794 1.0375 5.798 5.4316 7.69 13.793 0.549 4.0889 1.221 8.1779 0.183 14.037-0.732 2.38-0.915 3.723-4.638 11.352-0.427 0.915-0.916 2.258-0.855 3.722-0.122 2.075-0.549 8.849-0.061 17.332-0.976-0.244-1.892-0.854-1.892-0.854-0.305-3.723-1.037-12.694-1.769-14.708-1.709-3.051-8.606-18.37-9.277-22.764-0.427-3.112-1.099-5.676 3.113-15.135 1.281-2.8074 3.722-6.7133 3.722-6.7133z" fill="None" stroke="#000000" stroke-width="0.5" stroke-miterlimit="10" />
        <path id="path1375" d="m115.36 116.27c-6e-3 -0.735-0.162-3.591-0.141-4.288h0.018c0-0.074-7e-3 -0.15-0.011-0.226 0.183-5.729 1.09-10.03 1.106-10.098" fill="None" stroke="#000000" stroke-width="0.5" stroke-miterlimit="10" />
        <path id="path1377" d="m116.08 122.83c-0.416-2.2-0.634-4.423-0.723-6.559 0.057-1.679 1.159-3.247 1.17-3.265" fill="None" stroke="#000000" stroke-width="0.5" stroke-miterlimit="10" />
        <path id="path1379" d="m113.21 108.13c0.016 0.021 2.09 6.636 2.153 8.142" fill="None" stroke="#000000" stroke-width="0.5" stroke-miterlimit="10" />
        <path id="path1381" d="m114.81 110.09" fill="None" stroke="#000000" stroke-width="0.5" stroke-miterlimit="10" />
    </g>
    <g id="GC40w">
        <path id="path858-0" d="m165.63 164.69c0.829-0.045 1.502 2.125 1.502 4.802 0 2.678-0.673 4.849-1.502 4.849l0.019 7.318c4.104 0 7.415-5.468 7.415-12.212s-3.311-12.211-7.415-12.257z" fill="None" stroke="#000000" stroke-width="0.5" stroke-miterlimit="10" />
        <path id="path232-0" d="m165.63 164.69c-0.829-0.045-1.502 2.125-1.502 4.802 0 2.678 0.673 4.849 1.502 4.849l0.019 7.318c-4.067 0-7.378-5.468-7.378-12.212s3.311-12.211 7.378-12.257z" fill="None" stroke="#000000" stroke-width="0.5" stroke-miterlimit="10" />
    </g>
    <g id="L40w">
        <path id="path852-0" d="m163.14 85.068s1.342-3.1736 3.784-0.061c0.793 1.0375 5.797 5.4316 7.689 13.793 0.55 4.0889 1.221 8.1779 0.184 14.037-0.733 2.38-0.916 3.723-4.639 11.352-0.427 0.915-0.915 2.258-0.854 3.722-0.122 2.075-0.549 8.849-0.061 17.332-0.977-0.244-1.892-0.854-1.892-0.854-0.305-3.723-1.038-12.694-1.77-14.708-1.709-3.051-8.605-18.37-9.276-22.764-0.428-3.112-1.099-5.676 3.112-15.135 1.282-2.8074 3.723-6.7133 3.723-6.7133z" fill="None" stroke="#000000" stroke-width="0.5" stroke-miterlimit="10" />
        <path id="path1375-5" d="m166.14 116.27c-6e-3 -0.735-0.161-3.591-0.141-4.288h0.018c0-0.074-7e-3 -0.15-0.011-0.226 0.183-5.729 1.09-10.03 1.107-10.098" fill="None" stroke="#000000" stroke-width="0.5" stroke-miterlimit="10" />
        <path id="path1377-5" d="m166.86 122.83c-0.416-2.2-0.634-4.423-0.723-6.559 0.057-1.679 1.159-3.247 1.17-3.265" fill="None" stroke="#000000" stroke-width="0.5" stroke-miterlimit="10" />
        <path id="path1379-5" d="m163.98 108.13c0.017 0.021 2.091 6.636 2.153 8.142" fill="None" stroke="#000000" stroke-width="0.5" stroke-miterlimit="10" />
        <path id="path1381-6" d="m165.59 110.09" fill="None" stroke="#000000" stroke-width="0.5" stroke-miterlimit="10" />
    </g>
    <g id="GC20w">
        <path id="path858-0-9" d="m216.4 164.69c0.829-0.045 1.502 2.125 1.502 4.803 0 2.677-0.673 4.848-1.502 4.848l0.019 7.318c4.103 0 7.415-5.468 7.415-12.212s-3.312-12.211-7.415-12.257z" fill="None" stroke="#000000" stroke-width="0.5" stroke-miterlimit="10" />
        <path id="path232-0-6" d="m216.4 164.69c-0.83-0.045-1.502 2.125-1.502 4.803 0 2.677 0.672 4.848 1.502 4.848l0.019 7.318c-4.067 0-7.379-5.468-7.379-12.212s3.312-12.211 7.379-12.257z" fill="None" stroke="#000000" stroke-width="0.5" stroke-miterlimit="10" />
    </g>
    <g id="L20w">
        <path id="path852-0-3" d="m213.92 85.068s1.342-3.1736 3.783-0.061c0.794 1.0375 5.798 5.4316 7.69 13.793 0.549 4.0889 1.221 8.1779 0.183 14.037-0.732 2.38-0.915 3.723-4.638 11.352-0.427 0.915-0.915 2.258-0.854 3.722-0.122 2.075-0.55 8.849-0.061 17.332-0.977-0.244-1.892-0.854-1.892-0.854-0.305-3.723-1.038-12.694-1.77-14.708-1.709-3.051-8.605-18.37-9.277-22.764-0.427-3.112-1.098-5.676 3.113-15.135 1.281-2.8074 3.723-6.7133 3.723-6.7133z" fill="None" stroke="#000000" stroke-width="0.5" stroke-miterlimit="10" />
        <path id="path1375-5-9" d="m216.91 116.27c-6e-3 -0.735-0.161-3.591-0.141-4.288h0.018c0-0.074-7e-3 -0.15-0.011-0.226 0.183-5.729 1.09-10.03 1.106-10.098" fill="None" stroke="#000000" stroke-width="0.5" stroke-miterlimit="10" />
        <path id="path1377-5-4" d="m217.63 122.83c-0.416-2.2-0.634-4.423-0.723-6.559 0.057-1.679 1.159-3.247 1.17-3.265" fill="None" stroke="#000000" stroke-width="0.5" stroke-miterlimit="10" />
        <path id="path1379-5-4" d="m214.76 108.13c0.017 0.021 2.091 6.636 2.153 8.142" fill="None" stroke="#000000" stroke-width="0.5" stroke-miterlimit="10" />
        <path id="path1381-6-7" d="m216.36 110.09" fill="None" stroke="#000000" stroke-width="0.5" stroke-miterlimit="10" />
    </g>
    <g id="GC60d">
        <path id="path858-2" d="m114.86 287.52c0.829-0.046 1.501 2.125 1.501 4.803 0 2.676-0.672 4.848-1.501 4.848l0.018 7.317c4.104 0 7.416-5.467 7.416-12.211 0-6.745-3.312-12.212-7.416-12.257z" fill="None" stroke="#000000" stroke-width="0.5" stroke-miterlimit="10" />
        <path id="path232-4" d="m114.86 287.52c-0.83-0.046-1.503 2.125-1.503 4.803 0 2.676 0.673 4.848 1.503 4.848l0.018 7.317c-4.066 0-7.378-5.467-7.378-12.211 0-6.745 3.312-12.212 7.378-12.257z" fill="None" stroke="#000000" stroke-width="0.5" stroke-miterlimit="10" />
    </g>
    <g id="L60d">
        <path id="path852-1" d="m112.37 203.74s1.343-3.173 3.784-0.06c0.794 1.036 5.798 5.431 7.69 13.792 0.549 4.089 1.221 8.178 0.183 14.036-0.732 2.381-0.915 3.724-4.638 11.352-0.427 0.915-0.916 2.259-0.855 3.724-0.122 2.074-0.549 8.848-0.061 17.332-0.976-0.244-1.892-0.855-1.892-0.855-0.305-3.723-1.037-12.694-1.769-14.708-1.709-3.052-8.606-18.37-9.277-22.764-0.427-3.113-1.099-5.676 3.113-15.136 1.281-2.807 3.722-6.713 3.722-6.713z" fill="None" stroke="#000000" stroke-width="0.5" stroke-miterlimit="10" />
        <path id="path1375-4" d="m115.36 234.94c-6e-3 -0.734-0.162-3.59-0.141-4.287h0.018c0-0.075-7e-3 -0.152-0.011-0.227 0.183-5.729 1.09-10.029 1.106-10.098" fill="None" stroke="#000000" stroke-width="0.5" stroke-miterlimit="10" />
        <path id="path1377-1" d="m116.08 241.5c-0.416-2.201-0.634-4.424-0.723-6.56 0.057-1.679 1.159-3.246 1.17-3.264" fill="None" stroke="#000000" stroke-width="0.5" stroke-miterlimit="10" />
        <path id="path1379-8" d="m113.21 226.79c0.016 0.022 2.09 6.637 2.153 8.142" fill="None" stroke="#000000" stroke-width="0.5" stroke-miterlimit="10" />
        <path id="path1381-4" d="m114.81 228.76" fill="None" stroke="#000000" stroke-width="0.5" stroke-miterlimit="10" />
    </g>
    <g id="GC40d">
        <path id="path858-0-2" d="m165.63 287.52c0.829-0.046 1.502 2.125 1.502 4.803 0 2.676-0.673 4.848-1.502 4.848l0.019 7.317c4.104 0 7.415-5.467 7.415-12.211 0-6.745-3.311-12.212-7.415-12.257z" fill="None" stroke="#000000" stroke-width="0.5" stroke-miterlimit="10" />
        <path id="path232-0-1" d="m165.63 287.52c-0.829-0.046-1.502 2.125-1.502 4.803 0 2.676 0.673 4.848 1.502 4.848l0.019 7.317c-4.067 0-7.378-5.467-7.378-12.211 0-6.745 3.311-12.212 7.378-12.257z" fill="None" stroke="#000000" stroke-width="0.5" stroke-miterlimit="10" />
    </g>
    <g id="L40d">
        <path id="path852-0-4" d="m163.14 203.74s1.342-3.173 3.784-0.06c0.793 1.036 5.797 5.431 7.689 13.792 0.55 4.089 1.221 8.178 0.184 14.036-0.733 2.381-0.916 3.724-4.639 11.352-0.427 0.915-0.915 2.259-0.854 3.724-0.122 2.074-0.549 8.848-0.061 17.332-0.977-0.244-1.892-0.855-1.892-0.855-0.305-3.723-1.038-12.694-1.77-14.708-1.709-3.052-8.605-18.37-9.276-22.764-0.428-3.113-1.099-5.676 3.112-15.136 1.282-2.807 3.723-6.713 3.723-6.713z" fill="None" stroke="#000000" stroke-width="0.5" stroke-miterlimit="10" />
        <path id="path1375-5-4" d="m166.14 234.94c-6e-3 -0.734-0.161-3.59-0.141-4.287h0.018c0-0.075-7e-3 -0.152-0.011-0.227 0.183-5.729 1.09-10.029 1.107-10.098" fill="None" stroke="#000000" stroke-width="0.5" stroke-miterlimit="10" />
        <path id="path1377-5-2" d="m166.86 241.5c-0.416-2.201-0.634-4.424-0.723-6.56 0.057-1.679 1.159-3.246 1.17-3.264" fill="None" stroke="#000000" stroke-width="0.5" stroke-miterlimit="10" />
        <path id="path1379-5-2" d="m163.98 226.79c0.017 0.022 2.091 6.637 2.153 8.142" fill="None" stroke="#000000" stroke-width="0.5" stroke-miterlimit="10" />
        <path id="path1381-6-5" d="m165.59 228.76" fill="None" stroke="#000000" stroke-width="0.5" stroke-miterlimit="10" />
    </g>
    <g id="GC20d">
        <path id="path858-0-9-9" d="m216.4 287.52c0.829-0.047 1.502 2.124 1.502 4.802 0 2.676-0.673 4.848-1.502 4.848l0.019 7.317c4.103 0 7.415-5.467 7.415-12.211 0-6.745-3.312-12.212-7.415-12.257z" fill="None" stroke="#000000" stroke-width="0.5" stroke-miterlimit="10" />
        <path id="path232-0-6-0" d="m216.4 287.52c-0.83-0.047-1.502 2.124-1.502 4.802 0 2.676 0.672 4.848 1.502 4.848l0.019 7.317c-4.067 0-7.379-5.467-7.379-12.211 0-6.745 3.312-12.212 7.379-12.257z" fill="None" stroke="#000000" stroke-width="0.5" stroke-miterlimit="10" />
    </g>
    <g id="L20d">
        <path id="path852-0-3-7" d="m213.92 203.74s1.342-3.173 3.783-0.06c0.794 1.036 5.798 5.431 7.69 13.792 0.549 4.089 1.221 8.178 0.183 14.036-0.732 2.381-0.915 3.724-4.638 11.352-0.427 0.915-0.915 2.259-0.854 3.724-0.122 2.074-0.55 8.848-0.061 17.332-0.977-0.244-1.892-0.855-1.892-0.855-0.305-3.723-1.038-12.694-1.77-14.708-1.709-3.052-8.605-18.37-9.277-22.764-0.427-3.113-1.098-5.676 3.113-15.136 1.281-2.807 3.723-6.713 3.723-6.713z" fill="None" stroke="#000000" stroke-width="0.5" stroke-miterlimit="10" />
        <path id="path1375-5-9-3" d="m216.91 234.94c-6e-3 -0.734-0.161-3.59-0.141-4.287h0.018c0-0.075-7e-3 -0.152-0.011-0.227 0.183-5.729 1.09-10.029 1.106-10.098" fill="None" stroke="#000000" stroke-width="0.5" stroke-miterlimit="10" />
        <path id="path1377-5-4-3" d="m217.63 241.5c-0.416-2.201-0.634-4.424-0.723-6.56 0.057-1.679 1.159-3.246 1.17-3.264" fill="None" stroke="#000000" stroke-width="0.5" stroke-miterlimit="10" />
        <path id="path1379-5-4-0" d="m214.76 226.79c0.017 0.022 2.091 6.637 2.153 8.142" fill="None" stroke="#000000" stroke-width="0.5" stroke-miterlimit="10" />
        <path id="path1381-6-7-9" d="m216.36 228.76" fill="None" stroke="#000000" stroke-width="0.5" stroke-miterlimit="10" />
    </g>
    <g id="GCrw">
        <path id="path858-0-9-9-1" d="m296.16 287.52c0.829-0.047 1.501 2.124 1.501 4.802 0 2.676-0.672 4.848-1.501 4.848l0.018 7.317c4.104 0 7.416-5.467 7.416-12.211 0-6.745-3.312-12.212-7.416-12.257z" fill="None" stroke="#000000" stroke-width="0.5" stroke-miterlimit="10" />
        <path id="path232-0-6-0-0" d="m296.16 287.52c-0.83-0.047-1.503 2.124-1.503 4.802 0 2.676 0.673 4.848 1.503 4.848l0.018 7.317c-4.066 0-7.378-5.467-7.378-12.211 0-6.745 3.312-12.212 7.378-12.257z" fill="None" stroke="#000000" stroke-width="0.5" stroke-miterlimit="10" />
    </g>
    <g id="Lrw">
        <path id="path852-0-3-7-6" d="m293.67 203.74s1.342-3.173 3.783-0.06c0.794 1.036 5.798 5.431 7.69 13.792 0.549 4.089 1.221 8.178 0.183 14.036-0.732 2.381-0.915 3.724-4.638 11.352-0.427 0.915-0.915 2.259-0.854 3.724-0.122 2.074-0.55 8.848-0.061 17.332-0.977-0.244-1.892-0.855-1.892-0.855-0.305-3.723-1.038-12.694-1.77-14.708-1.709-3.052-8.605-18.37-9.277-22.764-0.427-3.113-1.098-5.676 3.113-15.136 1.281-2.807 3.723-6.713 3.723-6.713z" fill="None" stroke="#000000" stroke-width="0.5" stroke-miterlimit="10" />
        <path id="path1375-5-9-3-2" d="m296.66 234.94c-6e-3 -0.734-0.161-3.59-0.141-4.287h0.018c0-0.075-7e-3 -0.152-0.011-0.227 0.183-5.729 1.09-10.029 1.106-10.098" fill="None" stroke="#000000" stroke-width="0.5" stroke-miterlimit="10" />
        <path id="path1377-5-4-3-9" d="m297.39 241.5c-0.416-2.201-0.634-4.424-0.723-6.56 0.057-1.679 1.159-3.246 1.17-3.264" fill="None" stroke="#000000" stroke-width="0.5" stroke-miterlimit="10" />
        <path id="path1379-5-4-0-0" d="m294.51 226.79c0.017 0.022 2.091 6.637 2.153 8.142" fill="None" stroke="#000000" stroke-width="0.5" stroke-miterlimit="10" />
        <path id="path1381-6-7-9-4" d="m296.11 228.76" fill="None" stroke="#000000" stroke-width="0.5" stroke-miterlimit="10" />
    </g>
    <g id="GC60w_outline">
        <path id="path858" d="m116.24 165.46c0.829-0.045 1.502 2.125 1.502 4.802 0 2.678-0.673 4.849-1.502 4.849l0.018 7.318c4.104 0 7.416-5.468 7.416-12.212s-3.312-12.211-7.416-12.257z" fill="None" stroke="#000000" stroke-width="0.5" stroke-miterlimit="10" />
        <path id="path232" d="m116.24 165.46c-0.83-0.045-1.502 2.125-1.502 4.802 0 2.678 0.672 4.849 1.502 4.849l0.018 7.318c-4.066 0-7.378-5.468-7.378-12.212s3.312-12.211 7.378-12.257z" fill="None" stroke="#000000" stroke-width="0.5" stroke-miterlimit="10" />
    </g>
    <g id="L60w_outline">
        <path id="path852" d="m112.37 85.068s1.343-3.1736 3.784-0.061c0.794 1.0375 5.798 5.4316 7.69 13.793 0.549 4.0889 1.221 8.1779 0.183 14.037-0.732 2.38-0.915 3.723-4.638 11.352-0.427 0.915-0.916 2.258-0.855 3.722-0.122 2.075-0.549 8.849-0.061 17.332-0.976-0.244-1.892-0.854-1.892-0.854-0.305-3.723-1.037-12.694-1.769-14.708-1.709-3.051-8.606-18.37-9.277-22.764-0.427-3.112-1.099-5.676 3.113-15.135 1.281-2.8074 3.722-6.7133 3.722-6.7133z" fill="None" stroke="#000000" stroke-width="0.5" stroke-miterlimit="10" />
        <path id="path1375" d="m115.36 116.27c-6e-3 -0.735-0.162-3.591-0.141-4.288h0.018c0-0.074-7e-3 -0.15-0.011-0.226 0.183-5.729 1.09-10.03 1.106-10.098" fill="None" stroke="#000000" stroke-width="0.5" stroke-miterlimit="10" />
        <path id="path1377" d="m116.08 122.83c-0.416-2.2-0.634-4.423-0.723-6.559 0.057-1.679 1.159-3.247 1.17-3.265" fill="None" stroke="#000000" stroke-width="0.5" stroke-miterlimit="10" />
        <path id="path1379" d="m113.21 108.13c0.016 0.021 2.09 6.636 2.153 8.142" fill="None" stroke="#000000" stroke-width="0.5" stroke-miterlimit="10" />
        <path id="path1381" d="m114.81 110.09" fill="None" stroke="#000000" stroke-width="0.5" stroke-miterlimit="10" />
    </g>
    <g id="GC40w_outline">
        <path id="path858-0" d="m165.63 164.69c0.829-0.045 1.502 2.125 1.502 4.802 0 2.678-0.673 4.849-1.502 4.849l0.019 7.318c4.104 0 7.415-5.468 7.415-12.212s-3.311-12.211-7.415-12.257z" fill="None" stroke="#000000" stroke-width="0.5" stroke-miterlimit="10" />
        <path id="path232-0" d="m165.63 164.69c-0.829-0.045-1.502 2.125-1.502 4.802 0 2.678 0.673 4.849 1.502 4.849l0.019 7.318c-4.067 0-7.378-5.468-7.378-12.212s3.311-12.211 7.378-12.257z" fill="None" stroke="#000000" stroke-width="0.5" stroke-miterlimit="10" />
    </g>
    <g id="L40w_outline">
        <path id="path852-0" d="m163.14 85.068s1.342-3.1736 3.784-0.061c0.793 1.0375 5.797 5.4316 7.689 13.793 0.55 4.0889 1.221 8.1779 0.184 14.037-0.733 2.38-0.916 3.723-4.639 11.352-0.427 0.915-0.915 2.258-0.854 3.722-0.122 2.075-0.549 8.849-0.061 17.332-0.977-0.244-1.892-0.854-1.892-0.854-0.305-3.723-1.038-12.694-1.77-14.708-1.709-3.051-8.605-18.37-9.276-22.764-0.428-3.112-1.099-5.676 3.112-15.135 1.282-2.8074 3.723-6.7133 3.723-6.7133z" fill="None" stroke="#000000" stroke-width="0.5" stroke-miterlimit="10" />
        <path id="path1375-5" d="m166.14 116.27c-6e-3 -0.735-0.161-3.591-0.141-4.288h0.018c0-0.074-7e-3 -0.15-0.011-0.226 0.183-5.729 1.09-10.03 1.107-10.098" fill="None" stroke="#000000" stroke-width="0.5" stroke-miterlimit="10" />
        <path id="path1377-5" d="m166.86 122.83c-0.416-2.2-0.634-4.423-0.723-6.559 0.057-1.679 1.159-3.247 1.17-3.265" fill="None" stroke="#000000" stroke-width="0.5" stroke-miterlimit="10" />
        <path id="path1379-5" d="m163.98 108.13c0.017 0.021 2.091 6.636 2.153 8.142" fill="None" stroke="#000000" stroke-width="0.5" stroke-miterlimit="10" />
        <path id="path1381-6" d="m165.59 110.09" fill="None" stroke="#000000" stroke-width="0.5" stroke-miterlimit="10" />
    </g>
    <g id="GC20w_outline">
        <path id="path858-0-9" d="m216.4 164.69c0.829-0.045 1.502 2.125 1.502 4.803 0 2.677-0.673 4.848-1.502 4.848l0.019 7.318c4.103 0 7.415-5.468 7.415-12.212s-3.312-12.211-7.415-12.257z" fill="None" stroke="#000000" stroke-width="0.5" stroke-miterlimit="10" />
        <path id="path232-0-6" d="m216.4 164.69c-0.83-0.045-1.502 2.125-1.502 4.803 0 2.677 0.672 4.848 1.502 4.848l0.019 7.318c-4.067 0-7.379-5.468-7.379-12.212s3.312-12.211 7.379-12.257z" fill="None" stroke="#000000" stroke-width="0.5" stroke-miterlimit="10" />
    </g>
    <g id="L20w_outline">
        <path id="path852-0-3" d="m213.92 85.068s1.342-3.1736 3.783-0.061c0.794 1.0375 5.798 5.4316 7.69 13.793 0.549 4.0889 1.221 8.1779 0.183 14.037-0.732 2.38-0.915 3.723-4.638 11.352-0.427 0.915-0.915 2.258-0.854 3.722-0.122 2.075-0.55 8.849-0.061 17.332-0.977-0.244-1.892-0.854-1.892-0.854-0.305-3.723-1.038-12.694-1.77-14.708-1.709-3.051-8.605-18.37-9.277-22.764-0.427-3.112-1.098-5.676 3.113-15.135 1.281-2.8074 3.723-6.7133 3.723-6.7133z" fill="None" stroke="#000000" stroke-width="0.5" stroke-miterlimit="10" />
        <path id="path1375-5-9" d="m216.91 116.27c-6e-3 -0.735-0.161-3.591-0.141-4.288h0.018c0-0.074-7e-3 -0.15-0.011-0.226 0.183-5.729 1.09-10.03 1.106-10.098" fill="None" stroke="#000000" stroke-width="0.5" stroke-miterlimit="10" />
        <path id="path1377-5-4" d="m217.63 122.83c-0.416-2.2-0.634-4.423-0.723-6.559 0.057-1.679 1.159-3.247 1.17-3.265" fill="None" stroke="#000000" stroke-width="0.5" stroke-miterlimit="10" />
        <path id="path1379-5-4" d="m214.76 108.13c0.017 0.021 2.091 6.636 2.153 8.142" fill="None" stroke="#000000" stroke-width="0.5" stroke-miterlimit="10" />
        <path id="path1381-6-7" d="m216.36 110.09" fill="None" stroke="#000000" stroke-width="0.5" stroke-miterlimit="10" />
    </g>
    <g id="GC60d_outline">
        <path id="path858-2" d="m114.86 287.52c0.829-0.046 1.501 2.125 1.501 4.803 0 2.676-0.672 4.848-1.501 4.848l0.018 7.317c4.104 0 7.416-5.467 7.416-12.211 0-6.745-3.312-12.212-7.416-12.257z" fill="None" stroke="#000000" stroke-width="0.5" stroke-miterlimit="10" />
        <path id="path232-4" d="m114.86 287.52c-0.83-0.046-1.503 2.125-1.503 4.803 0 2.676 0.673 4.848 1.503 4.848l0.018 7.317c-4.066 0-7.378-5.467-7.378-12.211 0-6.745 3.312-12.212 7.378-12.257z" fill="None" stroke="#000000" stroke-width="0.5" stroke-miterlimit="10" />
    </g>
    <g id="L60d_outline">
        <path id="path852-1" d="m112.37 203.74s1.343-3.173 3.784-0.06c0.794 1.036 5.798 5.431 7.69 13.792 0.549 4.089 1.221 8.178 0.183 14.036-0.732 2.381-0.915 3.724-4.638 11.352-0.427 0.915-0.916 2.259-0.855 3.724-0.122 2.074-0.549 8.848-0.061 17.332-0.976-0.244-1.892-0.855-1.892-0.855-0.305-3.723-1.037-12.694-1.769-14.708-1.709-3.052-8.606-18.37-9.277-22.764-0.427-3.113-1.099-5.676 3.113-15.136 1.281-2.807 3.722-6.713 3.722-6.713z" fill="None" stroke="#000000" stroke-width="0.5" stroke-miterlimit="10" />
        <path id="path1375-4" d="m115.36 234.94c-6e-3 -0.734-0.162-3.59-0.141-4.287h0.018c0-0.075-7e-3 -0.152-0.011-0.227 0.183-5.729 1.09-10.029 1.106-10.098" fill="None" stroke="#000000" stroke-width="0.5" stroke-miterlimit="10" />
        <path id="path1377-1" d="m116.08 241.5c-0.416-2.201-0.634-4.424-0.723-6.56 0.057-1.679 1.159-3.246 1.17-3.264" fill="None" stroke="#000000" stroke-width="0.5" stroke-miterlimit="10" />
        <path id="path1379-8" d="m113.21 226.79c0.016 0.022 2.09 6.637 2.153 8.142" fill="None" stroke="#000000" stroke-width="0.5" stroke-miterlimit="10" />
        <path id="path1381-4" d="m114.81 228.76" fill="None" stroke="#000000" stroke-width="0.5" stroke-miterlimit="10" />
    </g>
    <g id="GC40d_outline">
        <path id="path858-0-2" d="m165.63 287.52c0.829-0.046 1.502 2.125 1.502 4.803 0 2.676-0.673 4.848-1.502 4.848l0.019 7.317c4.104 0 7.415-5.467 7.415-12.211 0-6.745-3.311-12.212-7.415-12.257z" fill="None" stroke="#000000" stroke-width="0.5" stroke-miterlimit="10" />
        <path id="path232-0-1" d="m165.63 287.52c-0.829-0.046-1.502 2.125-1.502 4.803 0 2.676 0.673 4.848 1.502 4.848l0.019 7.317c-4.067 0-7.378-5.467-7.378-12.211 0-6.745 3.311-12.212 7.378-12.257z" fill="None" stroke="#000000" stroke-width="0.5" stroke-miterlimit="10" />
    </g>
    <g id="L40d_outline">
        <path id="path852-0-4" d="m163.14 203.74s1.342-3.173 3.784-0.06c0.793 1.036 5.797 5.431 7.689 13.792 0.55 4.089 1.221 8.178 0.184 14.036-0.733 2.381-0.916 3.724-4.639 11.352-0.427 0.915-0.915 2.259-0.854 3.724-0.122 2.074-0.549 8.848-0.061 17.332-0.977-0.244-1.892-0.855-1.892-0.855-0.305-3.723-1.038-12.694-1.77-14.708-1.709-3.052-8.605-18.37-9.276-22.764-0.428-3.113-1.099-5.676 3.112-15.136 1.282-2.807 3.723-6.713 3.723-6.713z" fill="None" stroke="#000000" stroke-width="0.5" stroke-miterlimit="10" />
        <path id="path1375-5-4" d="m166.14 234.94c-6e-3 -0.734-0.161-3.59-0.141-4.287h0.018c0-0.075-7e-3 -0.152-0.011-0.227 0.183-5.729 1.09-10.029 1.107-10.098" fill="None" stroke="#000000" stroke-width="0.5" stroke-miterlimit="10" />
        <path id="path1377-5-2" d="m166.86 241.5c-0.416-2.201-0.634-4.424-0.723-6.56 0.057-1.679 1.159-3.246 1.17-3.264" fill="None" stroke="#000000" stroke-width="0.5" stroke-miterlimit="10" />
        <path id="path1379-5-2" d="m163.98 226.79c0.017 0.022 2.091 6.637 2.153 8.142" fill="None" stroke="#000000" stroke-width="0.5" stroke-miterlimit="10" />
        <path id="path1381-6-5" d="m165.59 228.76" fill="None" stroke="#000000" stroke-width="0.5" stroke-miterlimit="10" />
    </g>
    <g id="GC20d_outline">
        <path id="path858-0-9-9" d="m216.4 287.52c0.829-0.047 1.502 2.124 1.502 4.802 0 2.676-0.673 4.848-1.502 4.848l0.019 7.317c4.103 0 7.415-5.467 7.415-12.211 0-6.745-3.312-12.212-7.415-12.257z" fill="None" stroke="#000000" stroke-width="0.5" stroke-miterlimit="10" />
        <path id="path232-0-6-0" d="m216.4 287.52c-0.83-0.047-1.502 2.124-1.502 4.802 0 2.676 0.672 4.848 1.502 4.848l0.019 7.317c-4.067 0-7.379-5.467-7.379-12.211 0-6.745 3.312-12.212 7.379-12.257z" fill="None" stroke="#000000" stroke-width="0.5" stroke-miterlimit="10" />
    </g>
    <g id="L20d_outline">
        <path id="path852-0-3-7" d="m213.92 203.74s1.342-3.173 3.783-0.06c0.794 1.036 5.798 5.431 7.69 13.792 0.549 4.089 1.221 8.178 0.183 14.036-0.732 2.381-0.915 3.724-4.638 11.352-0.427 0.915-0.915 2.259-0.854 3.724-0.122 2.074-0.55 8.848-0.061 17.332-0.977-0.244-1.892-0.855-1.892-0.855-0.305-3.723-1.038-12.694-1.77-14.708-1.709-3.052-8.605-18.37-9.277-22.764-0.427-3.113-1.098-5.676 3.113-15.136 1.281-2.807 3.723-6.713 3.723-6.713z" fill="None" stroke="#000000" stroke-width="0.5" stroke-miterlimit="10" />
        <path id="path1375-5-9-3" d="m216.91 234.94c-6e-3 -0.734-0.161-3.59-0.141-4.287h0.018c0-0.075-7e-3 -0.152-0.011-0.227 0.183-5.729 1.09-10.029 1.106-10.098" fill="None" stroke="#000000" stroke-width="0.5" stroke-miterlimit="10" />
        <path id="path1377-5-4-3" d="m217.63 241.5c-0.416-2.201-0.634-4.424-0.723-6.56 0.057-1.679 1.159-3.246 1.17-3.264" fill="None" stroke="#000000" stroke-width="0.5" stroke-miterlimit="10" />
        <path id="path1379-5-4-0" d="m214.76 226.79c0.017 0.022 2.091 6.637 2.153 8.142" fill="None" stroke="#000000" stroke-width="0.5" stroke-miterlimit="10" />
        <path id="path1381-6-7-9" d="m216.36 228.76" fill="None" stroke="#000000" stroke-width="0.5" stroke-miterlimit="10" />
    </g>
    <g id="GCrw_outline">
        <path id="path858-0-9-9-1" d="m296.16 287.52c0.829-0.047 1.501 2.124 1.501 4.802 0 2.676-0.672 4.848-1.501 4.848l0.018 7.317c4.104 0 7.416-5.467 7.416-12.211 0-6.745-3.312-12.212-7.416-12.257z" fill="None" stroke="#000000" stroke-width="0.5" stroke-miterlimit="10" />
        <path id="path232-0-6-0-0" d="m296.16 287.52c-0.83-0.047-1.503 2.124-1.503 4.802 0 2.676 0.673 4.848 1.503 4.848l0.018 7.317c-4.066 0-7.378-5.467-7.378-12.211 0-6.745 3.312-12.212 7.378-12.257z" fill="None" stroke="#000000" stroke-width="0.5" stroke-miterlimit="10" />
    </g>
    <g id="Lrw_outline">
        <path id="path852-0-3-7-6" d="m293.67 203.74s1.342-3.173 3.783-0.06c0.794 1.036 5.798 5.431 7.69 13.792 0.549 4.089 1.221 8.178 0.183 14.036-0.732 2.381-0.915 3.724-4.638 11.352-0.427 0.915-0.915 2.259-0.854 3.724-0.122 2.074-0.55 8.848-0.061 17.332-0.977-0.244-1.892-0.855-1.892-0.855-0.305-3.723-1.038-12.694-1.77-14.708-1.709-3.052-8.605-18.37-9.277-22.764-0.427-3.113-1.098-5.676 3.113-15.136 1.281-2.807 3.723-6.713 3.723-6.713z" fill="None" stroke="#000000" stroke-width="0.5" stroke-miterlimit="10" />
        <path id="path1375-5-9-3-2" d="m296.66 234.94c-6e-3 -0.734-0.161-3.59-0.141-4.287h0.018c0-0.075-7e-3 -0.152-0.011-0.227 0.183-5.729 1.09-10.029 1.106-10.098" fill="None" stroke="#000000" stroke-width="0.5" stroke-miterlimit="10" />
        <path id="path1377-5-4-3-9" d="m297.39 241.5c-0.416-2.201-0.634-4.424-0.723-6.56 0.057-1.679 1.159-3.246 1.17-3.264" fill="None" stroke="#000000" stroke-width="0.5" stroke-miterlimit="10" />
        <path id="path1379-5-4-0-0" d="m294.51 226.79c0.017 0.022 2.091 6.637 2.153 8.142" fill="None" stroke="#000000" stroke-width="0.5" stroke-miterlimit="10" />
        <path id="path1381-6-7-9-4" d="m296.11 228.76" fill="None" stroke="#000000" stroke-width="0.5" stroke-miterlimit="10" />
    </g>
</svg>
